<svg width="26" height="24" viewBox="0 0 26 24" fill="none" xmlns="http://www.w3.org/2000/svg">
<path fill-rule="evenodd" clip-rule="evenodd" d="M9.1 0L6.76 2.6H2.6C1.17 2.6 0 3.77 0 5.2V20.8C0 22.23 1.17 23.4 2.6 23.4H23.4C24.83 23.4 26 22.23 26 20.8V5.2C26 3.77 24.83 2.6 23.4 2.6H19.24L16.9 0H9.1ZM13 19.5002C9.36 19.5002 6.5 16.6402 6.5 13.0002C6.5 9.36018 9.36 6.50018 13 6.50018C16.64 6.50018 19.5 9.36018 19.5 13.0002C19.5 16.6402 16.64 19.5002 13 19.5002ZM13 16.9001C15.1539 16.9001 16.9 15.154 16.9 13.0001C16.9 10.8462 15.1539 9.1001 13 9.1001C10.8461 9.1001 9.10001 10.8462 9.10001 13.0001C9.10001 15.154 10.8461 16.9001 13 16.9001Z" fill="#B3C1DB"/>
</svg>
